<?xml version="1.0" encoding="utf-8"?>
<!-- Generator: Adobe Illustrator 26.5.0, SVG Export Plug-In . SVG Version: 6.00 Build 0)  -->
<svg version="1.1"
	 id="svg4197" xmlns:sodipodi="http://sodipodi.sourceforge.net/DTD/sodipodi-0.dtd" xmlns:svg="http://www.w3.org/2000/svg" xmlns:inkscape="http://www.inkscape.org/namespaces/inkscape" xmlns:cc="http://creativecommons.org/ns#" xmlns:dc="http://purl.org/dc/elements/1.1/" xmlns:rdf="http://www.w3.org/1999/02/22-rdf-syntax-ns#" inkscape:version="0.48.4 r9939" sodipodi:docname="weathericons.svg"
	 xmlns="http://www.w3.org/2000/svg" xmlns:xlink="http://www.w3.org/1999/xlink" x="0px" y="0px" viewBox="0 0 45 44.4"
	 style="enable-background:new 0 0 45 44.4;" xml:space="preserve">
<style type="text/css">
	.st0{fill:#444444;stroke:#444444;stroke-width:0.75;stroke-miterlimit:10;}
</style>
<sodipodi:namedview  bordercolor="#666666" borderopacity="1.0" id="base" inkscape:current-layer="layer1" inkscape:cx="548.58925" inkscape:cy="301.36184" inkscape:document-units="px" inkscape:guide-bbox="true" inkscape:pageopacity="0.0" inkscape:pageshadow="2" inkscape:window-height="751" inkscape:window-maximized="1" inkscape:window-width="1280" inkscape:window-x="0" inkscape:window-y="0" inkscape:zoom="1" pagecolor="#ffffff" showgrid="false" showguides="true">
	<inkscape:grid  empspacing="5" enabled="true" id="grid4008" snapvisiblegridlinesonly="true" type="xygrid" visible="true">
		</inkscape:grid>
</sodipodi:namedview>
<g id="layer1" transform="translate(0,-432.36218)" inkscape:groupmode="layer" inkscape:label="Layer 1">
	<path id="path22" inkscape:connector-curvature="0" class="st0" d="M22.3,464.7c-5.5,0-9.9-4.5-9.9-9.9c0-5.5,4.5-9.9,9.9-9.9
		c5.5,0,9.9,4.5,9.9,9.9C32.2,460.2,27.8,464.7,22.3,464.7 M22.3,443.4c-6.3,0-11.3,5.1-11.3,11.3s5.1,11.3,11.3,11.3
		c6.3,0,11.3-5.1,11.3-11.3S28.5,443.4,22.3,443.4"/>
	<path id="path26" inkscape:connector-curvature="0" class="st0" d="M22.3,440.1c0.4,0,0.7-0.3,0.7-0.7v-5.6c0-0.4-0.3-0.7-0.7-0.7
		s-0.7,0.3-0.7,0.7v5.6C21.6,439.7,21.9,440.1,22.3,440.1"/>
	<path id="path30" inkscape:connector-curvature="0" class="st0" d="M22.3,469.2c-0.4,0-0.7,0.3-0.7,0.7v5.6c0,0.4,0.3,0.7,0.7,0.7
		s0.7-0.3,0.7-0.7v-5.6C23,469.5,22.7,469.2,22.3,469.2"/>
	<path id="path34" inkscape:connector-curvature="0" class="st0" d="M30,442.2c0.1,0.1,0.2,0.1,0.4,0.1c0.2,0,0.5-0.1,0.6-0.3l3-4.8
		c0.2-0.3,0.1-0.8-0.2-1c-0.3-0.2-0.8-0.1-1,0.2l-3,4.8C29.5,441.6,29.6,442,30,442.2"/>
	<path id="path38" inkscape:connector-curvature="0" class="st0" d="M14.6,467c-0.3-0.2-0.8-0.1-1,0.2l-3,4.8
		c-0.2,0.3-0.1,0.8,0.2,1c0.1,0.1,0.2,0.1,0.4,0.1c0.2,0,0.5-0.1,0.6-0.3l3-4.8C15,467.7,14.9,467.2,14.6,467"/>
	<path id="path42" inkscape:connector-curvature="0" class="st0" d="M35.8,448.1c0.1,0,0.2,0,0.3-0.1l4.9-2.6c0.3-0.2,0.5-0.6,0.3-1
		c-0.2-0.3-0.6-0.5-0.9-0.3l-4.9,2.6c-0.3,0.2-0.5,0.6-0.3,1C35.3,448,35.5,448.1,35.8,448.1"/>
	<path id="path46" inkscape:connector-curvature="0" class="st0" d="M8.5,461.3l-4.9,2.6c-0.3,0.2-0.5,0.6-0.3,1
		c0.1,0.2,0.4,0.4,0.6,0.4c0.1,0,0.2,0,0.3-0.1l4.9-2.6c0.3-0.2,0.5-0.6,0.3-1C9.2,461.2,8.8,461.1,8.5,461.3"/>
	<path id="path50" inkscape:connector-curvature="0" class="st0" d="M43.2,453.9L43.2,453.9l-5.6,0c-0.4,0-0.7,0.3-0.7,0.7
		c0,0.4,0.3,0.7,0.7,0.7h0l5.6,0c0.4,0,0.7-0.3,0.7-0.7C43.9,454.2,43.6,453.9,43.2,453.9"/>
	<path id="path54" inkscape:connector-curvature="0" class="st0" d="M7.7,454.7c0-0.4-0.3-0.7-0.7-0.7h0l-5.6,0
		c-0.4,0-0.7,0.3-0.7,0.7c0,0.4,0.3,0.7,0.7,0.7h0l5.6,0C7.4,455.4,7.7,455.1,7.7,454.7"/>
	<path id="path58" inkscape:connector-curvature="0" class="st0" d="M41,464.1l-4.9-2.7c-0.3-0.2-0.8-0.1-1,0.3
		c-0.2,0.3-0.1,0.8,0.3,1l4.9,2.7c0.1,0.1,0.2,0.1,0.3,0.1c0.2,0,0.5-0.1,0.6-0.4C41.4,464.7,41.3,464.2,41,464.1"/>
	<path id="path62" inkscape:connector-curvature="0" class="st0" d="M9.2,446.7L4.3,444c-0.3-0.2-0.8-0.1-1,0.3
		c-0.2,0.3-0.1,0.8,0.3,1l4.9,2.7c0.1,0.1,0.2,0.1,0.3,0.1c0.2,0,0.5-0.1,0.6-0.4C9.7,447.3,9.5,446.9,9.2,446.7"/>
	<path id="path66" inkscape:connector-curvature="0" class="st0" d="M31,467.2c-0.2-0.3-0.6-0.4-1-0.2c-0.3,0.2-0.4,0.6-0.2,1l3,4.8
		c0.1,0.2,0.4,0.3,0.6,0.3c0.1,0,0.3,0,0.4-0.1c0.3-0.2,0.4-0.6,0.2-1L31,467.2L31,467.2z"/>
	<path id="path70" inkscape:connector-curvature="0" class="st0" d="M13.6,442c0.1,0.2,0.4,0.3,0.6,0.3c0.1,0,0.3,0,0.4-0.1
		c0.3-0.2,0.4-0.6,0.2-1l-3-4.8c-0.2-0.3-0.6-0.4-1-0.2c-0.3,0.2-0.4,0.6-0.2,1C10.6,437.3,13.6,442,13.6,442z"/>
</g>
</svg>
