<?xml version="1.0" encoding="utf-8"?>
<!-- Generator: Adobe Illustrator 26.5.0, SVG Export Plug-In . SVG Version: 6.00 Build 0)  -->
<svg version="1.1" id="Layer_1" xmlns="http://www.w3.org/2000/svg" xmlns:xlink="http://www.w3.org/1999/xlink" x="0px" y="0px"
	 viewBox="0 0 53 44.2" style="enable-background:new 0 0 53 44.2;" xml:space="preserve">
<style type="text/css">
	.st0{fill:#444444;}
</style>
<g id="Guides">
</g>
<g id="_Tent">
	<path class="st0" d="M50.3,33.6c-1,0-1.8,0.8-1.8,1.8l-20-29.2l1.7-2.5c0.6-0.8,0.4-2-0.4-2.5c-0.8-0.6-1.9-0.4-2.5,0.5l-0.9,1.4
		l-0.9-1.4c-0.6-0.8-1.7-1-2.5-0.5c-0.8,0.6-1,1.7-0.4,2.5l1.7,2.5l-20,29.2c0-1-0.8-1.8-1.8-1.8s-1.8,0.8-1.8,1.8v5.8
		c0,0.8,0.5,1.5,1.3,1.7C2.2,43,2.4,43,2.5,43c0.6,0,1.1-0.3,1.5-0.8L7.6,37v4.2c0,1,0.8,1.8,1.8,1.8h34.3c1,0,1.8-0.8,1.8-1.8V37
		l3.6,5.2c0.3,0.5,0.9,0.8,1.5,0.8c0.2,0,0.4,0,0.5-0.1c0.7-0.2,1.3-0.9,1.3-1.7v-5.8C52.1,34.4,51.3,33.6,50.3,33.6z M28.9,39.4
		h-5.3v-9.3c0-1.5,1.2-2.7,2.6-2.7c1.5,0,2.6,1.2,2.6,2.7v9.3H28.9z M10.9,31.8l13.6-19.7v12.1c-2.6,0.8-4.4,3.2-4.4,6v9.3H11v-7.7
		H10.9z M41.6,39.4h-9.1v-9.3c0-2.8-1.9-5.2-4.4-6V12l13.5,19.8V39.4z"/>
</g>
</svg>
