<?xml version="1.0" encoding="utf-8"?>
<!-- Generator: Adobe Illustrator 26.5.0, SVG Export Plug-In . SVG Version: 6.00 Build 0)  -->
<svg version="1.1"
	 id="svg4197" xmlns:sodipodi="http://sodipodi.sourceforge.net/DTD/sodipodi-0.dtd" xmlns:svg="http://www.w3.org/2000/svg" xmlns:inkscape="http://www.inkscape.org/namespaces/inkscape" xmlns:cc="http://creativecommons.org/ns#" xmlns:dc="http://purl.org/dc/elements/1.1/" xmlns:rdf="http://www.w3.org/1999/02/22-rdf-syntax-ns#" inkscape:version="0.48.4 r9939" sodipodi:docname="weathericons.svg"
	 xmlns="http://www.w3.org/2000/svg" xmlns:xlink="http://www.w3.org/1999/xlink" x="0px" y="0px" viewBox="0 0 21.5 35.9"
	 style="enable-background:new 0 0 21.5 35.9;" xml:space="preserve">
<style type="text/css">
	.st0{fill:#444444;stroke:#444444;stroke-width:0.75;stroke-miterlimit:10;}
</style>
<sodipodi:namedview  bordercolor="#666666" borderopacity="1.0" id="base" inkscape:current-layer="layer1" inkscape:cx="548.58925" inkscape:cy="301.36184" inkscape:document-units="px" inkscape:guide-bbox="true" inkscape:pageopacity="0.0" inkscape:pageshadow="2" inkscape:window-height="751" inkscape:window-maximized="1" inkscape:window-width="1280" inkscape:window-x="0" inkscape:window-y="0" inkscape:zoom="1" pagecolor="#ffffff" showgrid="false" showguides="true">
	<inkscape:grid  empspacing="5" enabled="true" id="grid4008" snapvisiblegridlinesonly="true" type="xygrid" visible="true">
		</inkscape:grid>
</sodipodi:namedview>
<g id="layer1" transform="translate(0,-432.36218)" inkscape:groupmode="layer" inkscape:label="Layer 1">
	<path id="path4253" inkscape:connector-curvature="0" class="st0" d="M6.8,433c-0.3,0-0.7,0.1-1,0.3c-0.3,0.2-0.5,0.5-0.6,0.8v0
		l-4,16.5v0c-0.1,0.5,0.1,1.1,0.5,1.4c0.3,0.3,0.7,0.4,1.1,0.4c0.1,0,0.3,0,0.4-0.1h0l7-1.7l-3.7,15c0,0,0,0,0,0
		c-0.1,0.4,0,0.8,0.2,1.1c0.2,0.3,0.5,0.6,0.9,0.7h0h0.1c0.1,0,0.2,0.1,0.4,0.1c0.6,0,1.2-0.4,1.5-0.9v0l10.8-23.1
		c0.2-0.5,0.1-1.1-0.2-1.5c0,0,0-0.1,0-0.1l-0.2,0.2L20,442c-0.3-0.3-0.7-0.5-1.2-0.5c-0.2,0-0.3,0-0.4,0.1l-6.7,1.7l2.9-8
		c0,0,0,0,0-0.1c0.1-0.2,0.2-0.4,0.2-0.6c0-0.4-0.2-0.8-0.5-1.1c-0.3-0.3-0.7-0.4-1.1-0.4L6.8,433L6.8,433z M6.8,434.4h6.6
		c0.1,0,0.1,0,0.2,0.1c0.1,0.1,0,0,0,0.1c0,0,0,0,0,0v0.1l0,0l-3.4,9.2l-0.5,1.2l1.3-0.3l7.9-1.9c0.1,0,0.1,0,0.1,0
		c0.1,0,0.1,0,0.2,0.1c0,0,0,0,0,0c0,0,0.1,0,0,0.1L8.3,466.2c0,0,0,0,0,0c0,0.1,0,0.1-0.2,0.1c0,0-0.1,0-0.1,0c0,0,0,0-0.1,0
		c0,0,0,0,0-0.1c0,0,0,0,0-0.1l3.9-16.2l0.3-1.1l-1.1,0.3l-8.1,2h0c0.1,0,0,0-0.1,0c-0.1,0-0.1,0-0.2-0.1c-0.1,0,0,0,0-0.1v0l4-16.4
		v0c0,0,0,0,0.1-0.1C6.7,434.4,6.7,434.4,6.8,434.4L6.8,434.4z"/>
</g>
</svg>
