<?xml version="1.0" encoding="utf-8"?>
<!-- Generator: Adobe Illustrator 26.5.0, SVG Export Plug-In . SVG Version: 6.00 Build 0)  -->
<svg version="1.1"
	 id="svg4197" xmlns:sodipodi="http://sodipodi.sourceforge.net/DTD/sodipodi-0.dtd" xmlns:svg="http://www.w3.org/2000/svg" xmlns:inkscape="http://www.inkscape.org/namespaces/inkscape" xmlns:cc="http://creativecommons.org/ns#" xmlns:dc="http://purl.org/dc/elements/1.1/" xmlns:rdf="http://www.w3.org/1999/02/22-rdf-syntax-ns#" inkscape:version="0.48.4 r9939" sodipodi:docname="weathericons.svg"
	 xmlns="http://www.w3.org/2000/svg" xmlns:xlink="http://www.w3.org/1999/xlink" x="0px" y="0px" viewBox="0 0 50.5 49.8"
	 style="enable-background:new 0 0 50.5 49.8;" xml:space="preserve">
<style type="text/css">
	.st0{fill:#444444;stroke:#444444;stroke-width:0.75;stroke-miterlimit:10;}
</style>
<sodipodi:namedview  bordercolor="#666666" borderopacity="1.0" id="base" inkscape:current-layer="layer1" inkscape:cx="548.58925" inkscape:cy="301.36184" inkscape:document-units="px" inkscape:guide-bbox="true" inkscape:pageopacity="0.0" inkscape:pageshadow="2" inkscape:window-height="751" inkscape:window-maximized="1" inkscape:window-width="1280" inkscape:window-x="0" inkscape:window-y="0" inkscape:zoom="1" pagecolor="#ffffff" showgrid="false" showguides="true">
	<inkscape:grid  empspacing="5" enabled="true" id="grid4008" snapvisiblegridlinesonly="true" type="xygrid" visible="true">
		</inkscape:grid>
</sodipodi:namedview>
<g id="layer1" transform="translate(0,-432.36218)" inkscape:groupmode="layer" inkscape:label="Layer 1">
	<path id="path506" inkscape:connector-curvature="0" class="st0" d="M17.8,460.8H40c0.1,0,0.3,0,0.4,0v0c3.6,0,6.6-2.9,6.6-6.6
		c0-3.6-2.9-6.6-6.6-6.6c-0.5,0-1,0.1-1.6,0.2c-0.2,0-0.4,0-0.5-0.1c-0.2-0.1-0.3-0.3-0.3-0.4c-0.7-4.7-4.7-8.1-9.4-8.1
		c-5.3,0-9.6,4.3-9.6,9.6c0,0.3,0,0.5,0,0.8c0,0.2-0.1,0.4-0.2,0.5c-0.1,0.1-0.3,0.2-0.5,0.2c-0.2,0-0.4,0-0.6,0
		c-2.9,0-5.3,2.4-5.3,5.3C12.6,458.5,14.9,460.9,17.8,460.8 M17.8,449c0,0,0-0.1,0-0.1c0-6,4.9-10.8,10.8-10.8
		c5.1,0,9.5,3.5,10.6,8.5c0.4-0.1,0.8-0.1,1.2-0.1c4.3,0,7.9,3.5,7.9,7.9s-3.5,7.9-7.9,7.9h-5.9H17.8c-3.6,0-6.6-2.9-6.6-6.6
		C11.3,452,14.2,449,17.8,449"/>
	<path id="path510" inkscape:connector-curvature="0" class="st0" d="M9.9,442.1c0.4,0,0.8,0,1.2,0.1c1.1-5,5.4-8.5,10.6-8.5
		c2.2,0,4.4,0.7,6.2,2c0.3,0.2,0.4,0.6,0.2,0.9c-0.2,0.3-0.6,0.4-0.9,0.2c-1.6-1.1-3.5-1.7-5.5-1.7c-4.7,0-8.7,3.4-9.4,8.1
		c0,0.2-0.1,0.3-0.3,0.4c-0.1,0.1-0.3,0.1-0.5,0.1c-0.5-0.1-1.1-0.2-1.6-0.2c-3.6,0-6.6,2.9-6.6,6.6c0,3.4,2.5,6.2,5.9,6.5
		c0.4,0,0.6,0.4,0.6,0.7c0,0.3-0.3,0.6-0.6,0.6c0,0,0,0-0.1,0c-4-0.4-7-3.8-7-7.8C2.1,445.6,5.6,442.1,9.9,442.1"/>
	<path id="path3162" inkscape:connector-curvature="0" class="st0" d="M17.4,467.3c-0.4,0-0.7,0.3-0.7,0.7v1h-1
		c-0.4,0-0.7,0.3-0.7,0.7c0,0.4,0.3,0.7,0.7,0.7h1l0,1c0,0.4,0.3,0.7,0.7,0.7c0.2,0,0.4-0.1,0.5-0.2c0.1-0.1,0.2-0.3,0.2-0.5l0-1
		l1,0c0.2,0,0.3-0.1,0.5-0.2c0.1-0.1,0.2-0.3,0.2-0.5c0-0.4-0.3-0.7-0.7-0.7l-1,0v-1C18,467.6,17.7,467.3,17.4,467.3"/>
	<path id="path3164" inkscape:connector-curvature="0" class="st0" d="M29.4,467.3c-0.4,0-0.7,0.3-0.7,0.7v1h-1
		c-0.4,0-0.7,0.3-0.7,0.7c0,0.4,0.3,0.7,0.7,0.7h1l0,1c0,0.4,0.3,0.7,0.7,0.7c0.2,0,0.4-0.1,0.5-0.2c0.1-0.1,0.2-0.3,0.2-0.5l0-1
		l1,0c0.2,0,0.3-0.1,0.5-0.2c0.1-0.1,0.2-0.3,0.2-0.5c0-0.4-0.3-0.7-0.7-0.7l-1,0v-1C30,467.6,29.7,467.3,29.4,467.3"/>
	<path id="path3166" inkscape:connector-curvature="0" class="st0" d="M41.4,467.3c-0.4,0-0.7,0.3-0.7,0.7v1h-1
		c-0.4,0-0.7,0.3-0.7,0.7c0,0.4,0.3,0.7,0.7,0.7h1l0,1c0,0.4,0.3,0.7,0.7,0.7c0.2,0,0.4-0.1,0.5-0.2c0.1-0.1,0.2-0.3,0.2-0.5l0-1
		l1,0c0.2,0,0.3-0.1,0.5-0.2c0.1-0.1,0.2-0.3,0.2-0.5c0-0.4-0.3-0.7-0.7-0.7l-1,0v-1C42,467.6,41.7,467.3,41.4,467.3"/>
	<path id="path3168" inkscape:connector-curvature="0" class="st0" d="M11.4,475.3c-0.4,0-0.7,0.3-0.7,0.7v1h-1
		c-0.4,0-0.7,0.3-0.7,0.7c0,0.4,0.3,0.7,0.7,0.7h1l0,1c0,0.4,0.3,0.7,0.7,0.7c0.2,0,0.4-0.1,0.5-0.2c0.1-0.1,0.2-0.3,0.2-0.5l0-1
		l1,0c0.2,0,0.3-0.1,0.5-0.2c0.1-0.1,0.2-0.3,0.2-0.5c0-0.4-0.3-0.7-0.7-0.7l-1,0v-1C12,475.6,11.7,475.3,11.4,475.3"/>
	<path id="path3170" inkscape:connector-curvature="0" class="st0" d="M23.4,475.3c-0.4,0-0.7,0.3-0.7,0.7v1h-1
		c-0.4,0-0.7,0.3-0.7,0.7c0,0.4,0.3,0.7,0.7,0.7h1l0,1c0,0.4,0.3,0.7,0.7,0.7c0.2,0,0.4-0.1,0.5-0.2c0.1-0.1,0.2-0.3,0.2-0.5l0-1
		l1,0c0.2,0,0.3-0.1,0.5-0.2c0.1-0.1,0.2-0.3,0.2-0.5c0-0.4-0.3-0.7-0.7-0.7l-1,0v-1C24,475.6,23.7,475.3,23.4,475.3"/>
	<path id="path3172" inkscape:connector-curvature="0" class="st0" d="M35.4,475.3c-0.4,0-0.7,0.3-0.7,0.7v1h-1
		c-0.4,0-0.7,0.3-0.7,0.7c0,0.4,0.3,0.7,0.7,0.7h1l0,1c0,0.4,0.3,0.7,0.7,0.7c0.2,0,0.4-0.1,0.5-0.2c0.1-0.1,0.2-0.3,0.2-0.5l0-1
		l1,0c0.2,0,0.3-0.1,0.5-0.2c0.1-0.1,0.2-0.3,0.2-0.5c0-0.4-0.3-0.7-0.7-0.7l-1,0v-1C36,475.6,35.7,475.3,35.4,475.3"/>
</g>
</svg>
