<?xml version="1.0" encoding="utf-8"?>
<!-- Generator: Adobe Illustrator 26.5.0, SVG Export Plug-In . SVG Version: 6.00 Build 0)  -->
<svg version="1.1" id="Layer_1" xmlns="http://www.w3.org/2000/svg" xmlns:xlink="http://www.w3.org/1999/xlink" x="0px" y="0px"
	 viewBox="0 0 43.5 40.1" style="enable-background:new 0 0 43.5 40.1;" xml:space="preserve">
<style type="text/css">
	.st0{fill:none;}
	.st1{fill:#444444;stroke:#FFFFFF;stroke-width:2;stroke-miterlimit:10;}
</style>
<rect x="-401.8" y="-205.6" class="st0" width="608" height="448"/>
<path class="st1" d="M39.8,22.5l-8-4.3c-0.7-1.4-1.6-2.7-2.7-3.8c0.4-0.8,0.6-1.6,0.8-2.4l0.6-2.8c0.4-2.2-1-4.2-3.2-4.5
	c0,0-6.2-0.9-9.1-1.4C14.5,2.7,7,1.6,7,1.6c-0.1,0-0.2,0-0.3,0c-0.9,0-1.6,0.7-1.5,1.7l0.9,8.6c0.2,1.6,0.7,3.1,1.6,4.4
	c-1.6,2.3-2.5,5-2.5,8c0,7.7,6.3,14,14,14c5.5,0,10.2-3.2,12.5-7.8l8.1-4.3C41.7,25.2,41.7,23.6,39.8,22.5z M17.6,7.4l8.9,1.4
	L26,11.4c-0.1,0.2-0.1,0.5-0.2,0.7c-2-1-4.2-1.6-6.6-1.6c-3.2,0-6.2,1.1-8.6,2.9c-0.3-0.6-0.4-1.2-0.5-1.8L9.5,6.2L17.6,7.4z
	 M19.2,34.4c-5.5,0-10-4.5-10-10s4.5-10,10-10s10,4.5,10,10S24.7,34.4,19.2,34.4z"/>
<circle class="st1" cx="21.2" cy="22.4" r="3"/>
</svg>
