<?xml version="1.0" encoding="utf-8"?>
<!-- Generator: Adobe Illustrator 26.5.0, SVG Export Plug-In . SVG Version: 6.00 Build 0)  -->
<svg version="1.1" id="Layer_1" xmlns="http://www.w3.org/2000/svg" xmlns:xlink="http://www.w3.org/1999/xlink" x="0px" y="0px"
	 viewBox="0 0 36 37.7" style="enable-background:new 0 0 36 37.7;" xml:space="preserve">
<style type="text/css">
	.st0{fill:none;}
	.st1{fill:#444444;}
</style>
<rect x="-407" y="-204.2" class="st0" width="608" height="448"/>
<path class="st1" d="M34.6,20.9l-8-4.3c-0.7-1.4-1.6-2.7-2.7-3.8c0.4-0.8,0.6-1.6,0.8-2.4l0.6-2.8c0.4-2.2-1-4.2-3.2-4.5
	c0,0-6.2-0.9-9.1-1.4C9.3,1.1,1.8,0,1.8,0C1.7,0,1.6,0,1.5,0C0.6,0-0.1,0.7,0,1.7l0.9,8.6c0.2,1.6,0.7,3.1,1.6,4.4
	c-1.6,2.3-2.5,5-2.5,8c0,7.7,6.3,14,14,14c5.5,0,10.2-3.2,12.5-7.8l8.1-4.3C36.5,23.6,36.5,22,34.6,20.9z M12.4,5.8l8.9,1.4
	l-0.5,2.6c-0.1,0.2-0.1,0.5-0.2,0.7c-2-1-4.2-1.6-6.6-1.6c-3.2,0-6.2,1.1-8.6,2.9C5.1,11.2,5,10.6,4.9,10L4.3,4.6L12.4,5.8z
	 M14,32.8c-5.5,0-10-4.5-10-10s4.5-10,10-10s10,4.5,10,10S19.5,32.8,14,32.8z"/>
<circle class="st1" cx="16" cy="20.8" r="3"/>
</svg>
