<?xml version="1.0" encoding="utf-8"?>
<!-- Generator: Adobe Illustrator 26.5.0, SVG Export Plug-In . SVG Version: 6.00 Build 0)  -->
<svg version="1.1" id="Layer_1" xmlns="http://www.w3.org/2000/svg" xmlns:xlink="http://www.w3.org/1999/xlink" x="0px" y="0px"
	 viewBox="0 0 51.3 53.5" style="enable-background:new 0 0 51.3 53.5;" xml:space="preserve">
<style type="text/css">
	.st0{fill:#444444;}
</style>
<g id="Guides">
</g>
<g id="_Campfire">
	<path class="st0" d="M50.8,41.4l-2.3-10.8c-0.1-0.5-0.4-0.9-0.8-1.2s-0.9-0.4-1.4-0.3l-4,0.9c0.9-1.9,1.4-4,1.6-6.2
		c0.4-6.7-3.9-18.9-17-23.1c-0.6-0.2-1.2-0.1-1.7,0.3c-0.5,0.4-0.7,1-0.6,1.6c0,0,0.5,4.6-1.8,7.5l-0.5,0.7c-0.5,0.6-1,1.2-1.5,1.8
		c-0.4-1.6-0.2-3.1-0.2-3.1c0.1-0.6-0.2-1.3-0.6-1.7c-0.5-0.4-1.1-0.5-1.7-0.3C8,10.8,4.6,21,4.9,26.7c0,0.9,0.2,1.7,0.4,2.5L5,29.1
		c-0.5-0.1-1,0-1.4,0.3s-0.7,0.7-0.8,1.2L0.5,41.4c-0.2,1,0.4,2,1.4,2.2l1.4,0.3l1.6,7.5c0.1,0.5,0.4,0.9,0.8,1.2
		c0.3,0.2,0.6,0.3,1,0.3c0.1,0,0.3,0,0.4,0l18.7-4.1l18.4,4c0.1,0,0.3,0,0.4,0c0.3,0,0.7-0.1,1-0.3c0.4-0.3,0.7-0.7,0.8-1.2l1.6-7.4
		l1.5-0.3C50.3,43.3,51,42.4,50.8,41.4z M46.3,38.1l-11.9-2.6l10.8-2.4L46.3,38.1z M25.1,13l0.5-0.6c1.8-2.3,2.4-5.2,2.6-7.3
		c8.8,4,12.3,12.9,12,18.4C40,26.3,39,28.9,37.3,31l-10.2,2.2c1.4-2,2.1-4.4,2-6.9c-0.1-3.6-3.1-6.8-5.4-9.4c-0.3-0.4-0.7-0.7-1-1.1
		C23.7,14.9,24.4,14,25.1,13z M8.5,26.4c-0.2-3.5,1.7-11,8.5-14.5c0.2,1.6,0.7,3.6,2,5.3c0.6,0.7,1.2,1.5,1.9,2.2
		c2,2.2,4.4,4.9,4.5,7.1c0.1,2.4-1,4.7-2.8,6.4L9.4,30C8.9,28.9,8.6,27.6,8.5,26.4z M8.1,48.8l-0.9-4.1l9.9,2.1L8.1,48.8z
		 M43.1,48.7L4.4,40.3l1.5-7.2l38.7,8.4L43.1,48.7z"/>
</g>
</svg>
