<?xml version="1.0" encoding="utf-8"?>
<!-- Generator: Adobe Illustrator 26.5.0, SVG Export Plug-In . SVG Version: 6.00 Build 0)  -->
<svg version="1.1"
	 id="svg4197" xmlns:sodipodi="http://sodipodi.sourceforge.net/DTD/sodipodi-0.dtd" xmlns:svg="http://www.w3.org/2000/svg" xmlns:inkscape="http://www.inkscape.org/namespaces/inkscape" xmlns:cc="http://creativecommons.org/ns#" xmlns:dc="http://purl.org/dc/elements/1.1/" xmlns:rdf="http://www.w3.org/1999/02/22-rdf-syntax-ns#" inkscape:version="0.48.4 r9939" sodipodi:docname="weathericons.svg"
	 xmlns="http://www.w3.org/2000/svg" xmlns:xlink="http://www.w3.org/1999/xlink" x="0px" y="0px" viewBox="0 0 39.3 36.3"
	 style="enable-background:new 0 0 39.3 36.3;" xml:space="preserve">
<style type="text/css">
	.st0{fill:#444444;stroke:#444444;stroke-width:0.75;stroke-miterlimit:10;}
</style>
<sodipodi:namedview  bordercolor="#666666" borderopacity="1.0" id="base" inkscape:current-layer="layer1" inkscape:cx="548.58925" inkscape:cy="301.36184" inkscape:document-units="px" inkscape:guide-bbox="true" inkscape:pageopacity="0.0" inkscape:pageshadow="2" inkscape:window-height="751" inkscape:window-maximized="1" inkscape:window-width="1280" inkscape:window-x="0" inkscape:window-y="0" inkscape:zoom="1" pagecolor="#ffffff" showgrid="false" showguides="true">
	<inkscape:grid  empspacing="5" enabled="true" id="grid4008" snapvisiblegridlinesonly="true" type="xygrid" visible="true">
		</inkscape:grid>
</sodipodi:namedview>
<g id="layer1" transform="translate(0,-432.36218)" inkscape:groupmode="layer" inkscape:label="Layer 1">
	<path id="path4117" inkscape:connector-curvature="0" class="st0" d="M1.6,446.1c-1,3.4-1.1,7,0.1,10.6
		c2.9,8.5,12.2,13.6,20.9,10.6c7.6-2.6,12.2-11.1,9.4-18.8c-2.4-6.7-9.9-10.8-16.8-8.3c-5.9,2.2-9.4,8.8-7,14.8
		c1.9,5,7.6,8,12.8,5.9c4.1-1.7,6.5-6.5,4.7-10.7c-1.4-3.2-5.4-5.1-8.7-3.4c-1.2,0.6-2.1,1.6-2.6,2.9s-0.4,2.7,0.3,3.9
		c0.5,0.7,1.3,1.3,2.1,1.5c0.9,0.2,2,0.1,2.7-0.7c0.4-0.5,0.5-1,0.5-1.6c0-0.3-0.1-0.6-0.4-0.9s-0.8-0.4-1.2-0.3l0.4,1.5
		c0.1,0-0.1,0-0.2-0.1c-0.1-0.1-0.1-0.1-0.1-0.1c0,0.1-0.2,0.6-0.1,0.5c-0.3,0.4-0.7,0.4-1.2,0.3s-1-0.5-1.2-0.9
		c-0.5-0.8-0.5-1.7-0.2-2.5s1-1.6,1.8-2.1c2.5-1.3,5.6,0.2,6.7,2.7c1.5,3.4-0.5,7.3-3.9,8.7c-4.3,1.8-9.2-0.8-10.8-5
		c-2-5.2,1.1-10.9,6.2-12.8c6-2.2,12.8,1.4,14.9,7.4c2.5,6.9-1.7,14.6-8.5,16.9c-7.8,2.7-16.3-2-18.9-9.7c-2.9-8.7,2.3-18.1,10.8-21
		c9.5-3.2,19.9,2.5,23,12l1.4-0.5c-3.3-10.2-14.5-16.4-24.9-13C7.7,435.7,3.2,440.5,1.6,446.1L1.6,446.1z"/>
</g>
</svg>
