<?xml version="1.0" encoding="utf-8"?>
<!-- Generator: Adobe Illustrator 26.5.0, SVG Export Plug-In . SVG Version: 6.00 Build 0)  -->
<svg version="1.1" id="Layer_1" xmlns="http://www.w3.org/2000/svg" xmlns:xlink="http://www.w3.org/1999/xlink" x="0px" y="0px"
	 viewBox="0 0 67.1 55.3" style="enable-background:new 0 0 67.1 55.3;" xml:space="preserve">
<style type="text/css">
	.st0{fill:#444444;}
	.st1{fill:#444444;stroke:#FFFFFF;stroke-miterlimit:10;}
</style>
<g id="Guides">
</g>
<g id="Jungle">
	<path class="st0" d="M-330.8-322.6l-6.2-8.8h3.1c0.7,0,1.3-0.4,1.6-1c0.3-0.6,0.3-1.3-0.1-1.9l-6.3-8.9h3c0.7,0,1.3-0.4,1.6-1
		c0.3-0.6,0.3-1.3-0.1-1.9l-9.2-13.1c-0.3-0.5-0.9-0.8-1.4-0.8c-0.6,0-1.1,0.3-1.4,0.8l-3.2,4.5l-7.6-10.8c-0.3-0.5-0.9-0.8-1.4-0.8
		c-0.6,0-1.1,0.3-1.4,0.8l-10.8,15.4c-0.4,0.5-0.4,1.3-0.1,1.9c0.3,0.6,0.9,1,1.6,1h4.1l-7.7,11c-0.4,0.5-0.4,1.3-0.1,1.9
		c0.3,0.6,0.9,1,1.6,1h4.2l-7.7,10.7c-0.4,0.5-0.4,1.3-0.1,1.9c0.3,0.6,0.9,1,1.6,1h13v4c0,1,0.8,1.8,1.8,1.8s1.8-0.8,1.8-1.8v-4
		h10.1v3.8c0,1,0.8,1.8,1.8,1.8s1.8-0.8,1.8-1.8v-3.8h10.8c0.7,0,1.3-0.4,1.6-1C-330.3-321.3-330.4-322-330.8-322.6z M-369.9-323.3
		l7.6-10.8c0.4-0.5,0.4-1.3,0.1-1.9c-0.3-0.6-0.9-1-1.6-1h-4.1l7.7-11c0.4-0.5,0.4-1.3,0.1-1.9c-0.3-0.6-0.9-1-1.6-1h-4.1l7.3-10.5
		l7.3,10.5h-4.1c-0.7,0-1.3,0.4-1.6,1c-0.3,0.6-0.3,1.3,0.1,1.9l7.7,11h-4.2c-0.7,0-1.3,0.4-1.6,1c-0.3,0.6-0.3,1.3,0.1,1.9
		l7.6,10.8H-369.9z M-342.8-323.3l-7.1-10.1h4.2l0,0c1,0,1.8-0.8,1.8-1.8c0-0.5-0.2-0.9-0.5-1.2l-7.6-10.8h4.1l0,0
		c1,0,1.8-0.8,1.8-1.8c0-0.5-0.2-0.9-0.5-1.2l-0.9-1.3l2.4-3.5l5.8,8.2h-3c-0.7,0-1.3,0.4-1.6,1s-0.3,1.3,0.1,1.9l6.3,8.9h-3.1
		c-0.7,0-1.3,0.4-1.6,1c-0.3,0.6-0.3,1.3,0.1,1.9l6.2,8.8C-335.9-323.3-342.8-323.3-342.8-323.3z"/>
</g>
<g id="_Campfire">
	<path class="st1" d="M51.6,42l-2.3-10.8c-0.1-0.5-0.4-0.9-0.8-1.2s-0.9-0.4-1.4-0.3l-4,0.9c0.9-1.9,1.4-4,1.6-6.2
		c0.4-6.7-3.9-18.9-17-23.1c-0.6-0.2-1.2-0.1-1.7,0.3c-0.5,0.4-0.7,1-0.6,1.6c0,0,0.5,4.6-1.8,7.5l-0.5,0.7c-0.5,0.6-1,1.2-1.5,1.8
		c-0.4-1.6-0.2-3.1-0.2-3.1c0.1-0.6-0.2-1.3-0.6-1.7c-0.5-0.4-1.1-0.5-1.7-0.3C8.8,11.4,5.4,21.6,5.7,27.3c0,0.9,0.2,1.7,0.4,2.5
		l-0.3-0.1c-0.5-0.1-1,0-1.4,0.3s-0.7,0.7-0.8,1.2L1.3,42c-0.2,1,0.4,2,1.4,2.2l1.4,0.3L5.7,52c0.1,0.5,0.4,0.9,0.8,1.2
		c0.3,0.2,0.6,0.3,1,0.3c0.1,0,0.3,0,0.4,0l18.7-4.1l18.4,4c0.1,0,0.3,0,0.4,0c0.3,0,0.7-0.1,1-0.3c0.4-0.3,0.7-0.7,0.8-1.2l1.6-7.4
		l1.5-0.3C51.1,43.9,51.8,43,51.6,42z M47.1,38.7l-11.9-2.6L46,33.7L47.1,38.7z M25.9,13.6l0.5-0.6c1.8-2.3,2.4-5.2,2.6-7.3
		c8.8,4,12.3,12.9,12,18.4c-0.2,2.8-1.2,5.4-2.9,7.5l-10.2,2.2c1.4-2,2.1-4.4,2-6.9c-0.1-3.6-3.1-6.8-5.4-9.4
		c-0.3-0.4-0.7-0.7-1-1.1C24.5,15.5,25.2,14.6,25.9,13.6z M9.3,27c-0.2-3.5,1.7-11,8.5-14.5c0.2,1.6,0.7,3.6,2,5.3
		c0.6,0.7,1.2,1.5,1.9,2.2c2,2.2,4.4,4.9,4.5,7.1c0.1,2.4-1,4.7-2.8,6.4l-13.2-2.9C9.7,29.5,9.4,28.2,9.3,27z M8.9,49.4L8,45.3
		l9.9,2.1L8.9,49.4z M43.9,49.3L5.2,40.9l1.5-7.2l38.7,8.4L43.9,49.3z"/>
</g>
</svg>
