<?xml version="1.0" encoding="utf-8"?>
<!-- Generator: Adobe Illustrator 26.5.0, SVG Export Plug-In . SVG Version: 6.00 Build 0)  -->
<svg version="1.1" id="Layer_1" xmlns="http://www.w3.org/2000/svg" xmlns:xlink="http://www.w3.org/1999/xlink" x="0px" y="0px"
	 viewBox="0 0 36 40" style="enable-background:new 0 0 36 40;" xml:space="preserve">
<style type="text/css">
	.st0{fill:none;}
	.st1{fill:#444444;}
</style>
<rect x="-327" y="-123" class="st0" width="608" height="448"/>
<path class="st1" d="M27.6,7.1C26.4,2.9,22.5,0,18,0c-4.4,0-8.3,3-9.6,7.1C3.7,7.9,0,12,0,17c0,3.2,1.5,6.1,4,8
	c0,3.9,2.4,7.3,6.1,8.5c0.6,0.3,1.2,0.5,1.9,0.5l0,0l0,0h4v4c0,1.1,0.9,2,2,2s2-0.9,2-2v-4h4l0,0l0,0c0.7,0,1.3-0.2,1.9-0.5
	c3.7-1.2,6.1-4.6,6.1-8.5c2.5-1.9,4-4.8,4-8C36,12,32.4,7.9,27.6,7.1z M28.9,22.2l-1.2,0.7l0.2,1.4c0,0.2,0.1,0.5,0.1,0.7
	c0,2.2-1.4,4.1-3.5,4.8l-0.3,0.1L24,30l0,0l0,0h-4v-5.4c0.2-0.1,0.4-0.2,0.6-0.4l5.7-5.7c0.8-0.8,0.8-2,0-2.8s-2-0.8-2.8,0l-3.4,3.4
	V16c0-1.1-0.9-2-2-2s-2,0.9-2,2v14h-4l0,0l-0.2-0.1l-0.3-0.1c-2.1-0.7-3.5-2.6-3.5-4.8c0-0.2,0-0.5,0.1-0.7l0.2-1.4l-1.2-0.7
	c-1.9-1.1-3.1-3.1-3.1-5.2c0-3.3,2.7-6,6-6h1.7L12,9.3c0.4-3,3-5.3,6-5.3s5.6,2.3,6,5.2l0.2,1.8H26c3.3,0,6.1,2.7,6.1,6
	C32,19.2,30.8,21.2,28.9,22.2z"/>
</svg>
