<?xml version="1.0" encoding="utf-8"?>
<!-- Generator: Adobe Illustrator 26.5.0, SVG Export Plug-In . SVG Version: 6.00 Build 0)  -->
<svg version="1.1"
	 id="svg4197" xmlns:sodipodi="http://sodipodi.sourceforge.net/DTD/sodipodi-0.dtd" xmlns:svg="http://www.w3.org/2000/svg" xmlns:inkscape="http://www.inkscape.org/namespaces/inkscape" xmlns:cc="http://creativecommons.org/ns#" xmlns:dc="http://purl.org/dc/elements/1.1/" xmlns:rdf="http://www.w3.org/1999/02/22-rdf-syntax-ns#" inkscape:version="0.48.4 r9939" sodipodi:docname="weathericons.svg"
	 xmlns="http://www.w3.org/2000/svg" xmlns:xlink="http://www.w3.org/1999/xlink" x="0px" y="0px" viewBox="0 0 47.8 43.4"
	 style="enable-background:new 0 0 47.8 43.4;" xml:space="preserve">
<style type="text/css">
	.st0{fill:#444444;stroke:#444444;stroke-width:0.75;stroke-miterlimit:10;}
</style>
<sodipodi:namedview  bordercolor="#666666" borderopacity="1.0" id="base" inkscape:current-layer="layer1" inkscape:cx="548.58925" inkscape:cy="301.36184" inkscape:document-units="px" inkscape:guide-bbox="true" inkscape:pageopacity="0.0" inkscape:pageshadow="2" inkscape:window-height="751" inkscape:window-maximized="1" inkscape:window-width="1280" inkscape:window-x="0" inkscape:window-y="0" inkscape:zoom="1" pagecolor="#ffffff" showgrid="false" showguides="true">
	<inkscape:grid  empspacing="5" enabled="true" id="grid4008" snapvisiblegridlinesonly="true" type="xygrid" visible="true">
		</inkscape:grid>
</sodipodi:namedview>
<g id="layer1" transform="translate(0,-432.36218)" inkscape:groupmode="layer" inkscape:label="Layer 1">
	<path id="path318" inkscape:connector-curvature="0" class="st0" d="M13.7,465.2c-0.3-0.2-0.7,0-0.9,0.3l-4.3,8.7
		c-0.2,0.3,0,0.7,0.3,0.9c0.1,0,0.2,0.1,0.3,0.1c0.2,0,0.5-0.1,0.6-0.4l4.3-8.7C14.1,465.8,14,465.4,13.7,465.2"/>
	<path id="path322" inkscape:connector-curvature="0" class="st0" d="M21,465.2c-0.3-0.2-0.7,0-0.9,0.3l-4.3,8.7
		c-0.2,0.3,0,0.7,0.3,0.9c0.1,0,0.2,0.1,0.3,0.1c0.2,0,0.5-0.1,0.6-0.4l4.3-8.7C21.4,465.8,21.3,465.4,21,465.2"/>
	<path id="path326" inkscape:connector-curvature="0" class="st0" d="M28.2,465.2c-0.3-0.2-0.7,0-0.9,0.3l-4.3,8.7
		c-0.2,0.3,0,0.7,0.3,0.9c0.1,0,0.2,0.1,0.3,0.1c0.2,0,0.5-0.1,0.6-0.4l4.3-8.7C28.6,465.8,28.5,465.4,28.2,465.2"/>
	<path id="path330" inkscape:connector-curvature="0" class="st0" d="M35.4,465.2c-0.3-0.2-0.7,0-0.9,0.3l-4.3,8.7
		c-0.2,0.3,0,0.7,0.3,0.9c0.1,0,0.2,0.1,0.3,0.1c0.2,0,0.5-0.1,0.6-0.4l4.3-8.7C35.9,465.8,35.8,465.4,35.4,465.2"/>
	<path id="path334" inkscape:connector-curvature="0" class="st0" d="M42.7,465.2c-0.3-0.2-0.7,0-0.9,0.3l-4.3,8.7
		c-0.2,0.3,0,0.7,0.3,0.9c0.1,0,0.2,0.1,0.3,0.1c0.2,0,0.5-0.1,0.6-0.4l4.3-8.7C43.1,465.8,43,465.4,42.7,465.2"/>
	<path id="path338" inkscape:connector-curvature="0" class="st0" d="M16.4,460.3h22.2c0.1,0,0.3,0,0.4,0v0c3.6,0,6.6-2.9,6.6-6.6
		c0-3.6-2.9-6.6-6.6-6.6c-0.5,0-1,0.1-1.6,0.2c-0.2,0-0.4,0-0.5-0.1c-0.2-0.1-0.3-0.3-0.3-0.4c-0.7-4.7-4.7-8.1-9.4-8.1
		c-5.3,0-9.6,4.3-9.6,9.6c0,0.3,0,0.5,0,0.8c0,0.2-0.1,0.4-0.2,0.5c-0.1,0.1-0.3,0.2-0.5,0.2c-0.2,0-0.4,0-0.6,0
		c-2.9,0-5.3,2.4-5.3,5.3S13.5,460.3,16.4,460.3 M16.4,448.5c0,0,0-0.1,0-0.1c0-6,4.9-10.8,10.8-10.8c5.1,0,9.5,3.5,10.6,8.5
		c0.4-0.1,0.8-0.1,1.2-0.1c4.3,0,7.9,3.5,7.9,7.9s-3.5,7.9-7.9,7.9h-5.9H16.4c-3.6,0-6.6-2.9-6.6-6.6
		C9.8,451.4,12.8,448.5,16.4,448.5"/>
	<path id="path342" inkscape:connector-curvature="0" class="st0" d="M8.5,441.5c0.4,0,0.8,0,1.2,0.1c1.1-5,5.4-8.5,10.6-8.5
		c2.2,0,4.4,0.7,6.2,2c0.3,0.2,0.4,0.6,0.2,0.9c-0.2,0.3-0.6,0.4-0.9,0.2c-1.6-1.1-3.5-1.7-5.5-1.7c-4.7,0-8.7,3.4-9.4,8.1
		c0,0.2-0.1,0.3-0.3,0.4c-0.1,0.1-0.3,0.1-0.5,0.1c-0.5-0.1-1.1-0.2-1.6-0.2c-3.6,0-6.6,2.9-6.6,6.6c0,3.4,2.5,6.2,5.9,6.5
		c0.4,0,0.6,0.4,0.6,0.7c0,0.3-0.3,0.6-0.6,0.6c0,0,0,0-0.1,0c-4-0.4-7-3.8-7-7.8C0.6,445.1,4.2,441.5,8.5,441.5"/>
</g>
</svg>
