<?xml version="1.0" encoding="utf-8"?>
<!-- Generator: Adobe Illustrator 26.5.0, SVG Export Plug-In . SVG Version: 6.00 Build 0)  -->
<svg version="1.1" id="Layer_1" xmlns="http://www.w3.org/2000/svg" xmlns:xlink="http://www.w3.org/1999/xlink" x="0px" y="0px"
	 viewBox="0 0 44.6 53" style="enable-background:new 0 0 44.6 53;" xml:space="preserve">
<style type="text/css">
	.st0{fill:#444444;}
</style>
<g id="Guides">
</g>
<g id="Jungle">
	<path class="st0" d="M44.2,44.3L38,35.5h3.1c0.7,0,1.3-0.4,1.6-1c0.3-0.6,0.3-1.3-0.1-1.9l-6.3-8.9h3c0.7,0,1.3-0.4,1.6-1
		c0.3-0.6,0.3-1.3-0.1-1.9L31.6,7.6c-0.3-0.5-0.9-0.8-1.4-0.8c-0.6,0-1.1,0.3-1.4,0.8l-3.2,4.5L18,1.3c-0.3-0.5-0.9-0.8-1.4-0.8
		c-0.6,0-1.1,0.3-1.4,0.8L4.4,16.7C4,17.2,4,18,4.3,18.6c0.3,0.6,0.9,1,1.6,1H10l-7.7,11c-0.4,0.5-0.4,1.3-0.1,1.9
		c0.3,0.6,0.9,1,1.6,1H8L0.3,44.3c-0.4,0.5-0.4,1.3-0.1,1.9c0.3,0.6,0.9,1,1.6,1h13v4c0,1,0.8,1.8,1.8,1.8s1.8-0.8,1.8-1.8v-4h10.1
		V51c0,1,0.8,1.8,1.8,1.8s1.8-0.8,1.8-1.8v-3.8h10.8c0.7,0,1.3-0.4,1.6-1C44.7,45.6,44.6,44.9,44.2,44.3z M5.1,43.6l7.6-10.8
		c0.4-0.5,0.4-1.3,0.1-1.9c-0.3-0.6-0.9-1-1.6-1H7.1l7.7-11c0.4-0.5,0.4-1.3,0.1-1.9c-0.3-0.6-0.9-1-1.6-1H9.2l7.3-10.5L23.8,16
		h-4.1c-0.7,0-1.3,0.4-1.6,1s-0.3,1.3,0.1,1.9l7.7,11h-4.2c-0.7,0-1.3,0.4-1.6,1c-0.3,0.6-0.3,1.3,0.1,1.9l7.6,10.8L5.1,43.6z
		 M32.2,43.6l-7.1-10.1h4.2l0,0c1,0,1.8-0.8,1.8-1.8c0-0.5-0.2-0.9-0.5-1.2L23,19.7h4.1l0,0c1,0,1.8-0.8,1.8-1.8
		c0-0.5-0.2-0.9-0.5-1.2l-0.9-1.3l2.4-3.5l5.8,8.2h-3c-0.7,0-1.3,0.4-1.6,1c-0.3,0.6-0.3,1.3,0.1,1.9l6.3,8.9h-3.1
		c-0.7,0-1.3,0.4-1.6,1c-0.3,0.6-0.3,1.3,0.1,1.9l6.2,8.8C39.1,43.6,32.2,43.6,32.2,43.6z"/>
</g>
</svg>
