<?xml version="1.0" encoding="utf-8"?>
<!-- Generator: Adobe Illustrator 26.5.0, SVG Export Plug-In . SVG Version: 6.00 Build 0)  -->
<svg version="1.1" id="Layer_1" xmlns="http://www.w3.org/2000/svg" xmlns:xlink="http://www.w3.org/1999/xlink" x="0px" y="0px"
	 viewBox="0 0 36.4 38.2" style="enable-background:new 0 0 36.4 38.2;" xml:space="preserve">
<style type="text/css">
	.st0{fill:none;}
	.st1{fill-rule:evenodd;clip-rule:evenodd;fill:#444444;stroke:#FFFFFF;stroke-width:2;stroke-miterlimit:10;}
	.st2{fill-rule:evenodd;clip-rule:evenodd;fill:#444444;}
</style>
<rect x="-406.6" y="-283.6" class="st0" width="608" height="448"/>
<g>
	<path class="st1" d="M13.2,17.6c-2,0-4.1,0.8-5.7,2.3c-3.1,3.1-8.8,13.8-5.7,17c0.6,0.6,1.6,0.9,2.7,0.9c4.5,0,11.7-4.1,14.2-6.6
		c3.1-3.1,3.1-8.2,0-11.3C17.3,18.4,15.3,17.6,13.2,17.6z M16.1,28.4c-1.9,1.9-7.9,5.2-11.1,5.4c0.2-2.6,3.1-8.7,5.4-11
		c0.8-0.8,1.8-1.2,2.8-1.2c0.2,0,0.4,0,0.6,0.1l-2,2c-0.8,0.8-0.8,2,0,2.8s2,0.8,2.8,0l2.3-2.3C17.5,25.6,17.2,27.3,16.1,28.4z"/>
	<path class="st1" d="M29.4,3.1c-1.6-1.6-3.6-2.3-5.7-2.3S19.6,1.6,18,3.1c-3.1,3.1-3.1,8.2,0,11.3c2.5,2.5,9.8,6.6,14.2,6.6
		c1.1,0,2.1-0.3,2.7-0.9C38.2,16.9,32.5,6.2,29.4,3.1z M20.9,11.5c-0.8-0.8-1.2-1.8-1.2-2.8c0-0.4,0.1-0.7,0.1-1l1.5,1.5
		c0.8,0.8,2,0.8,2.8,0s0.8-2,0-2.8l-1.5-1.5c0.3-0.1,0.7-0.1,1-0.1c1.1,0,2.1,0.4,2.8,1.2c2.3,2.3,5.2,8.5,5.4,11
		C28.8,16.7,22.8,13.5,20.9,11.5z M18.5,7.9"/>
	<path class="st1" d="M9.4,12.4c1.2-1.2,1.2-3.3,0-4.5s-3.3-1.2-4.5,0s-3.5,5.5-2.3,6.8S8.2,13.6,9.4,12.4z"/>
	<path class="st1" d="M25.7,26.7c-1.2,1.2-1.2,3.3,0,4.5c1.2,1.2,5.5,3.5,6.8,2.3c1.3-1.2-1-5.5-2.3-6.8S26.9,25.4,25.7,26.7z"/>
	<rect x="17" y="5.7" transform="matrix(-0.3316 0.9434 -0.9434 -0.3316 30.6487 -8.9266)" class="st2" width="2.9" height="1.4"/>
</g>
</svg>
