<?xml version="1.0" encoding="utf-8"?>
<!-- Generator: Adobe Illustrator 26.5.0, SVG Export Plug-In . SVG Version: 6.00 Build 0)  -->
<svg version="1.1"
	 id="svg4197" xmlns:sodipodi="http://sodipodi.sourceforge.net/DTD/sodipodi-0.dtd" xmlns:svg="http://www.w3.org/2000/svg" xmlns:inkscape="http://www.inkscape.org/namespaces/inkscape" xmlns:cc="http://creativecommons.org/ns#" xmlns:dc="http://purl.org/dc/elements/1.1/" xmlns:rdf="http://www.w3.org/1999/02/22-rdf-syntax-ns#" inkscape:version="0.48.4 r9939" sodipodi:docname="weathericons.svg"
	 xmlns="http://www.w3.org/2000/svg" xmlns:xlink="http://www.w3.org/1999/xlink" x="0px" y="0px" viewBox="0 0 45.5 44.6"
	 style="enable-background:new 0 0 45.5 44.6;" xml:space="preserve">
<style type="text/css">
	.st0{fill:#444444;stroke:#444444;stroke-width:0.75;stroke-miterlimit:10;}
</style>
<sodipodi:namedview  bordercolor="#666666" borderopacity="1.0" id="base" inkscape:current-layer="layer1" inkscape:cx="548.58925" inkscape:cy="301.36184" inkscape:document-units="px" inkscape:guide-bbox="true" inkscape:pageopacity="0.0" inkscape:pageshadow="2" inkscape:window-height="751" inkscape:window-maximized="1" inkscape:window-width="1280" inkscape:window-x="0" inkscape:window-y="0" inkscape:zoom="1" pagecolor="#ffffff" showgrid="false" showguides="true">
	<inkscape:grid  empspacing="5" enabled="true" id="grid4008" snapvisiblegridlinesonly="true" type="xygrid" visible="true">
		</inkscape:grid>
</sodipodi:namedview>
<g id="layer1" transform="translate(0,-432.36218)" inkscape:groupmode="layer" inkscape:label="Layer 1">
	<path id="path242" inkscape:connector-curvature="0" class="st0" d="M15.6,458.7h21.1c0.1,0,0.3,0,0.4,0v0c3.4,0,6.3-2.8,6.3-6.3
		c0-3.4-2.8-6.3-6.3-6.3c-0.5,0-1,0.1-1.5,0.2c-0.2,0-0.3,0-0.5-0.1c-0.1-0.1-0.2-0.2-0.3-0.4c-0.7-4.5-4.5-7.7-9-7.7
		c-5,0-9.1,4.1-9.1,9.1c0,0.2,0,0.5,0,0.7c0,0.2-0.1,0.4-0.2,0.5c-0.1,0.1-0.3,0.2-0.5,0.2c-0.2,0-0.4,0-0.6,0c-2.8,0-5,2.3-5,5
		C10.5,456.5,12.8,458.7,15.6,458.7 M15.5,447.5c0,0,0-0.1,0-0.1c0-5.7,4.6-10.3,10.3-10.3c4.9,0,9,3.4,10.1,8.1
		c0.4-0.1,0.8-0.1,1.2-0.1c4.1,0,7.5,3.4,7.5,7.5s-3.4,7.5-7.5,7.5h-5.6h-16c-3.4,0-6.2-2.8-6.2-6.2
		C9.3,450.3,12.1,447.5,15.5,447.5"/>
	<path id="path246" inkscape:connector-curvature="0" class="st0" d="M8,440.9c0.4,0,0.8,0,1.2,0.1c1-4.7,5.2-8.1,10.1-8.1
		c2.1,0,4.2,0.6,5.9,1.9c0.3,0.2,0.3,0.6,0.1,0.9c-0.2,0.3-0.6,0.3-0.9,0.2c-1.5-1.1-3.3-1.6-5.2-1.6c-4.5,0-8.3,3.2-9,7.7
		c0,0.2-0.1,0.3-0.3,0.4c-0.1,0.1-0.3,0.1-0.5,0.1c-0.5-0.1-1-0.2-1.5-0.2c-3.4,0-6.3,2.8-6.3,6.3c0,3.2,2.4,5.9,5.6,6.2
		c0.3,0,0.6,0.3,0.5,0.7c0,0.3-0.3,0.5-0.6,0.5c0,0,0,0-0.1,0c-3.8-0.4-6.7-3.6-6.7-7.4C0.6,444.2,3.9,440.9,8,440.9"/>
	<path id="path282" inkscape:connector-curvature="0" class="st0" d="M16.6,466c-0.3-0.2-0.7,0-0.9,0.3l-4.6,9.2
		c-0.2,0.3,0,0.7,0.3,0.9c0.1,0,0.2,0.1,0.3,0.1c0.2,0,0.5-0.1,0.6-0.4l4.6-9.2C17.1,466.5,17,466.1,16.6,466"/>
	<path id="path286" inkscape:connector-curvature="0" class="st0" d="M31.9,466c-0.3-0.2-0.7,0-0.9,0.3l-4.6,9.2
		c-0.2,0.3,0,0.7,0.3,0.9c0.1,0,0.2,0.1,0.3,0.1c0.2,0,0.5-0.1,0.6-0.4l4.6-9.2C32.4,466.5,32.3,466.1,31.9,466"/>
</g>
</svg>
